<svg xmlns="http://www.w3.org/2000/svg" fill="none" class="icon icon-cart" viewBox="0 0 40 40"><g transform="translate(5.5, 3)"><path d="M14.5351 0.25C17.6356 0.254778 20.3287 2.5093 20.8506 5.53516C21.0161 6.49678 20.935 7.48115 20.9404 8.3877C20.9409 8.46109 20.9463 8.50811 20.9531 8.53809C20.9549 8.5458 20.9557 8.55172 20.957 8.55566C20.9594 8.5566 20.9629 8.55823 20.9678 8.55957C20.9917 8.56612 21.035 8.573 21.1094 8.57227L21.6494 8.55957C22.2005 8.54517 22.7821 8.53732 23.3516 8.65918C25.21 9.0578 26.5586 10.633 26.748 12.5039C26.956 14.55 27.2171 16.5895 27.4639 18.6367L28.5234 27.3164L28.7119 28.9014H28.7129C29.0469 31.4849 27.1125 33.7303 24.4951 33.7422C21.1605 33.7579 17.8257 33.745 14.4932 33.7461L13.8877 33.7471L13.8896 33.7451C10.8136 33.7455 7.73768 33.7483 4.66113 33.7451C2.38649 33.7427 0.64597 32.2568 0.290033 30.0186C0.225068 29.611 0.247926 29.2144 0.294915 28.8359C0.318384 28.647 0.348119 28.4588 0.376947 28.2764C0.406024 28.0924 0.434059 27.9133 0.455072 27.7354C0.85474 24.3388 1.27941 20.9445 1.69238 17.5508C1.912 15.751 2.09186 13.9263 2.36035 12.1211C2.65937 10.1137 4.37715 8.64898 6.38964 8.5752C6.92838 8.55594 7.46942 8.55379 8.00781 8.56738C8.04098 8.56822 8.06335 8.5645 8.07812 8.5625C8.08166 8.54331 8.08611 8.51434 8.08691 8.4707C8.10312 7.54314 8.01003 6.52233 8.17968 5.53613C8.70509 2.49015 11.4058 0.245333 14.5351 0.25ZM9.9287 10.4082C9.92662 10.4262 9.92394 10.4524 9.9248 10.4902C9.9384 11.0834 9.93724 11.6765 9.9248 12.2676C9.91883 12.5582 9.83404 12.8191 9.6621 13.0088C9.50854 13.1782 9.3021 13.2722 9.07128 13.2881L8.97167 13.29C8.71111 13.2833 8.48028 13.1829 8.31738 12.9902C8.15834 12.802 8.08402 12.5496 8.08007 12.2715C8.07218 11.6813 8.06841 11.0886 8.08202 10.4961L8.07714 10.4072C8.06334 10.4058 8.04381 10.4023 8.0166 10.4033H8.01562C7.88277 10.4082 7.75005 10.4103 7.61816 10.4111H6.83788C6.70966 10.412 6.58209 10.414 6.45507 10.4189L6.45605 10.4199C5.32095 10.4657 4.38557 11.2857 4.16699 12.3799L4.13378 12.6025C4.05278 13.3541 3.97127 14.1076 3.87988 14.8613C3.35083 19.2157 2.81838 23.5696 2.2871 27.9238L2.11523 29.3408C1.96716 30.6395 3.11556 31.8913 4.55175 31.8955C7.87074 31.9056 11.1894 31.8984 14.5107 31.8984C17.8171 31.8984 21.1219 31.9019 24.4277 31.8975C25.7139 31.8953 26.7224 31.0304 26.9033 29.7861C26.9395 29.5387 26.9241 29.286 26.8877 29.0176C26.8694 28.8832 26.8464 28.7486 26.8232 28.6084C26.8003 28.4699 26.7771 28.3263 26.7598 28.1816C26.4118 25.2725 26.0496 22.3707 25.6992 19.46C25.4258 17.1925 25.1492 14.9234 24.9014 12.6514C24.7743 11.4856 23.8413 10.5106 22.7363 10.4326C22.149 10.3912 21.5984 10.4228 20.9756 10.4062C20.9645 10.406 20.9551 10.4069 20.9473 10.4072C20.9465 10.4186 20.945 10.4333 20.9453 10.4512C20.9498 10.7473 20.9513 11.0432 20.9512 11.3389L20.9463 12.2246C20.9437 12.5153 20.8764 12.7778 20.7207 12.9746C20.5592 13.1787 20.326 13.2822 20.0596 13.291C19.7808 13.3005 19.5317 13.202 19.3555 12.999C19.1841 12.8017 19.1026 12.5313 19.0986 12.2305C19.0907 11.6544 19.0891 11.0748 19.1016 10.4961L19.0967 10.4082C19.082 10.4062 19.0607 10.4023 19.0312 10.4023C16.0212 10.4113 13.01 10.4113 9.99999 10.4023L9.9287 10.4082ZM14.9053 2.10742C12.5788 1.91049 10.4516 3.51457 10.0166 5.79492C9.93801 6.20802 9.92439 6.62872 9.92675 7.06543C9.9285 7.38771 9.93887 7.72659 9.93456 8.06543L9.9248 8.40332C9.92111 8.47443 9.92427 8.51845 9.92968 8.54395C9.93066 8.54853 9.93181 8.55203 9.93261 8.55469C9.93543 8.55565 9.93969 8.55545 9.94433 8.55664C9.97096 8.56342 10.0164 8.56934 10.0908 8.56836L12.3086 8.55762C13.0476 8.5579 13.7863 8.56055 14.5234 8.56055H14.7734C16.1652 8.55969 17.5601 8.55352 18.9551 8.56836C19.0243 8.56909 19.0669 8.56456 19.0918 8.55859C19.0939 8.55808 19.096 8.55614 19.0976 8.55566H19.0986C19.1038 8.53363 19.1072 8.49294 19.1045 8.4248C19.0919 8.09656 19.0939 7.76903 19.0957 7.44727C19.0975 7.12371 19.0994 6.80606 19.0889 6.48926C19.0142 4.19995 17.1981 2.30115 14.9053 2.10742Z" fill="currentColor"/></g></svg>
