<svg class="icon icon-caret" viewBox="0 0 48.3892 22.5283" xmlns="http://www.w3.org/2000/svg" xmlns:xlink="http://www.w3.org/1999/xlink" 
width="48.389221" 
height="22.528320" 
fill="none" 
customFrame="#000000">
<path id="Arrow 6" d="M0 -1.6911L46.6912 -1.6911L46.6912 1.6911L0 1.6911L0 -1.6911ZM44.2996 0L35.9291 -8.37054C35.2594 -9.04018 35.2594 -10.0925 35.9291 -10.7621C36.5987 -11.4318 37.651 -11.4318 38.3206 -10.7621L47.887 -1.19579C48.5566 -0.526148 48.5566 0.526148 47.887 1.19579L38.3206 10.7621C37.651 11.4318 36.5987 11.4318 35.9291 10.7621C35.2594 10.0925 35.2594 9.04018 35.9291 8.37054L44.2996 0Z" fill="rgb(0,0,0)" fill-rule="nonzero" transform="matrix(6.3614e-05,1,-1,6.3614e-05,11.262,0)" />
</svg>
