<?xml version="1.0" encoding="utf-8"?><!-- Uploaded to: SVG Repo, www.svgrepo.com, Generator: SVG Repo Mixer Tools -->
<svg width="800px" height="800px" viewBox="0 0 24 24" fill="none" xmlns="http://www.w3.org/2000/svg">
<path d="M12 16.75C11.8834 16.7508 11.7683 16.724 11.6641 16.6719C11.5598 16.6198 11.4693 16.5437 11.4 16.45L5.40001 8.45C5.31568 8.33802 5.26442 8.20465 5.25204 8.06501C5.23967 7.92537 5.26668 7.78506 5.33001 7.66C5.39376 7.53712 5.48986 7.43399 5.60793 7.36173C5.72601 7.28947 5.86158 7.25084 6.00001 7.25H18C18.1384 7.25084 18.274 7.28947 18.3921 7.36173C18.5102 7.43399 18.6063 7.53712 18.67 7.66C18.7333 7.78506 18.7603 7.92537 18.748 8.06501C18.7356 8.20465 18.6843 8.33802 18.6 8.45L12.6 16.45C12.5307 16.5437 12.4402 16.6198 12.336 16.6719C12.2317 16.724 12.1166 16.7508 12 16.75ZM7.50001 8.75L12 14.75L16.5 8.75H7.50001Z" fill="#000000"/>
</svg>